<svg xmlns="http://www.w3.org/2000/svg" xmlns:xlink="http://www.w3.org/1999/xlink" version="1.1" width="256" height="256" viewBox="0 0 256 256" xml:space="preserve">

<defs>
</defs>
<g style="stroke: none; stroke-width: 0; stroke-dasharray: none; stroke-linecap: butt; stroke-linejoin: miter; stroke-miterlimit: 10; fill: none; fill-rule: nonzero; opacity: 1;" transform="translate(1.4065934065934016 1.4065934065934016) scale(2.81 2.81)" >
	<path d="M 45 52.204 c -2.209 0 -4 -1.791 -4 -4 V 4 c 0 -2.209 1.791 -4 4 -4 s 4 1.791 4 4 v 44.204 C 49 50.413 47.209 52.204 45 52.204 z" style="stroke: none; stroke-width: 1; stroke-dasharray: none; stroke-linecap: butt; stroke-linejoin: miter; stroke-miterlimit: 10; fill: rgb(0,0,0); fill-rule: nonzero; opacity: 1;" transform=" matrix(1 0 0 1 0 0) " stroke-linecap="round" />
	<path d="M 45 90 C 21.873 90 3.058 71.186 3.058 48.059 c 0 -16.147 9.022 -30.589 23.546 -37.689 c 1.985 -0.971 4.38 -0.147 5.351 1.837 c 0.97 1.985 0.147 4.38 -1.837 5.351 c -11.757 5.747 -19.06 17.435 -19.06 30.502 C 11.058 66.774 26.284 82 45 82 s 33.941 -15.226 33.941 -33.941 c 0 -13.067 -7.303 -24.755 -19.06 -30.502 c -1.984 -0.97 -2.807 -3.366 -1.837 -5.351 c 0.971 -1.984 3.367 -2.806 5.351 -1.837 c 14.523 7.1 23.546 21.542 23.546 37.689 C 86.941 71.186 68.127 90 45 90 z" style="stroke: none; stroke-width: 1; stroke-dasharray: none; stroke-linecap: butt; stroke-linejoin: miter; stroke-miterlimit: 10; fill: rgb(0,0,0); fill-rule: nonzero; opacity: 1;" transform=" matrix(1 0 0 1 0 0) " stroke-linecap="round" />
</g>
</svg>